<?xml version="1.0" encoding="UTF-8"?><svg id="Layer_1" xmlns="http://www.w3.org/2000/svg" xmlns:xlink="http://www.w3.org/1999/xlink" viewBox="0 0 350 82"><defs><style>.cls-1{fill:url(#GradientFill_3-2);}.cls-1,.cls-2,.cls-3,.cls-4,.cls-5,.cls-6,.cls-7{fill-rule:evenodd;}.cls-1,.cls-3,.cls-6{opacity:.35;}.cls-2{fill:url(#GradientFill_4);}.cls-3{fill:url(#GradientFill_3);}.cls-4{fill:url(#GradientFill_4-3);}.cls-5{fill:url(#GradientFill_4-2);}.cls-6{fill:url(#GradientFill_3-3);}</style><radialGradient id="GradientFill_4" cx="-71" cy="-757.88" fx="-71" fy="-757.88" r="9.98" gradientTransform="translate(185.95 404.68) scale(.48)" gradientUnits="userSpaceOnUse"><stop offset="0" stop-color="#fff"/><stop offset=".02" stop-color="#fef9f9"/><stop offset=".22" stop-color="#f8b7ba"/><stop offset=".42" stop-color="#f47f86"/><stop offset=".6" stop-color="#f0545c"/><stop offset=".77" stop-color="#ee353f"/><stop offset=".9" stop-color="#ec222d"/><stop offset="1" stop-color="#ec1c27"/></radialGradient><radialGradient id="GradientFill_4-2" cx="-176.9" cy="-712.15" fx="-176.9" fy="-712.15" r="9.73" xlink:href="#GradientFill_4"/><radialGradient id="GradientFill_4-3" cx="-171.01" cy="-829.45" fx="-171.01" fy="-829.45" r="9.26" xlink:href="#GradientFill_4"/><linearGradient id="GradientFill_3" x1="108.6" y1="37.55" x2="133.37" y2="44.82" gradientUnits="userSpaceOnUse"><stop offset="0" stop-color="#fff"/><stop offset=".62" stop-color="#5e5e5e"/><stop offset="1" stop-color="#000"/></linearGradient><linearGradient id="GradientFill_3-2" x1="88.29" y1="31.58" x2="151.29" y2="50.09" xlink:href="#GradientFill_3"/><linearGradient id="GradientFill_3-3" x1="83.38" y1="30.22" x2="158.28" y2="52.23" xlink:href="#GradientFill_3"/></defs><g><path class="cls-2" d="M152.33,37.95c-2.59,.82-4.02,3.58-3.2,6.17,.82,2.58,3.58,4.02,6.17,3.2,2.58-.82,4.02-3.58,3.2-6.16-.82-2.59-3.58-4.03-6.17-3.21Z"/><path class="cls-5" d="M103.7,73.16c-2.58,.82-5.34-.61-6.16-3.2-.82-2.59,.61-5.35,3.19-6.17,2.59-.82,5.35,.61,6.17,3.2,.82,2.59-.62,5.35-3.2,6.17Z"/><path class="cls-4" d="M107.39,16.02c-2.59,.82-5.35-.61-6.17-3.2-.82-2.58,.61-5.34,3.2-6.16,2.58-.82,5.34,.62,6.16,3.2,.82,2.59-.61,5.35-3.19,6.17Z"/><path class="cls-3" d="M132.21,.67c-8.69-2.55-20.71,13.16-27.36,35.77-2.76,9.39-4.09,18.27-4.09,25.64,.62-.14,1.24-.19,1.84-.15,.03-7.22,1.33-15.97,3.97-24.99C112.73,16.02,124.23,.2,131.7,2.39c7.47,2.2,8.59,21.73,2.44,42.66-6.15,20.93-17.66,36.75-25.13,34.56-1.95-.57-3.47-2.33-4.54-4.99-.1,.03-.19,.08-.28,.11-.49,.15-.99,.24-1.48,.28,1.3,3.35,3.24,5.58,5.79,6.33,8.69,2.55,20.71-13.16,27.36-35.77,6.65-22.62,5.04-42.33-3.65-44.89Z"/><path class="cls-1" d="M123.55,55.01c-21.27,4.84-40.7,2.52-42.42-5.08-1.73-7.59,14.78-18.1,36.05-22.94,21.27-4.84,40.7-2.52,42.43,5.08,.4,1.75-.17,3.64-1.54,5.59,.46,.39,.87,.85,1.21,1.36,1.85-2.51,2.61-5.01,2.08-7.35-2.01-8.84-21.59-11.66-44.57-6.43-22.98,5.23-39.41,16.25-37.4,25.09,2.01,8.84,21.59,11.66,44.57,6.43,9.99-2.27,18.74-5.64,25.27-9.45-.44-.43-.82-.92-1.13-1.47-6.41,3.68-15,6.99-24.55,9.17Z"/><path class="cls-6" d="M132.08,29.87c-6.7-7.06-13.67-12.65-20.02-16.34-.21,.58-.49,1.13-.86,1.63,6.22,3.65,13.12,9.15,19.57,15.95,15.02,15.82,22.93,33.72,17.28,39.08-5.65,5.36-23.11-3.48-38.12-19.3-15.02-15.82-22.93-33.72-17.28-39.08,1.5-1.43,3.85-1.85,6.76-1.4,.08-.6,.25-1.18,.49-1.73-3.6-.58-6.54-.03-8.49,1.82-6.57,6.24,.99,24.52,17.22,41.61,16.23,17.1,34.09,25.6,40.66,19.36,6.57-6.24-.99-24.52-17.22-41.61Z"/><path class="cls-7" d="M12.08,72.27c0,.4,.03,.76,.11,1.09,.07,.33,.21,.76,.42,1.32H0c.28-.95,.42-1.75,.42-2.4V26.96C.42,26.21,.28,25.4,0,24.55H22.27c7.14,0,12.71,1.22,16.7,3.64,3.99,2.43,5.99,5.82,5.99,10.18,0,4.61-2.24,8.22-6.72,10.82-4.48,2.61-10.71,3.91-18.7,3.91h-7.46v19.16h0Zm6.3-23h0c3.36,0,6.09-.45,8.19-1.36,2.03-.86,3.62-2.11,4.78-3.77,1.16-1.66,1.73-3.54,1.73-5.66,0-3.22-1.23-5.74-3.68-7.58-2.45-1.84-5.81-2.75-10.08-2.75h-7.25v21.12h6.3Z"/><path class="cls-7" d="M116.56,28.2c-3.99-2.43-9.56-3.64-16.7-3.64h-22.27c.28,.85,.42,1.65,.42,2.4v45.04l-22.23-20.92c1.89-.25,3.36-.48,4.41-.68,1.05-.2,2.17-.48,3.36-.83,3.57-1,6.32-2.48,8.24-4.43,1.93-1.95,2.89-4.28,2.89-6.99,0-2-.53-3.84-1.58-5.52-1.05-1.68-2.56-3.12-4.52-4.32-1.96-1.2-4.29-2.13-6.98-2.78-2.7-.65-5.65-.98-8.87-.98h-8.1v3.61h3.72c4.15,0,7.39,.73,9.71,2.18,1.48,.9,2.64,2.08,3.49,3.53,.84,1.45,1.27,2.98,1.27,4.58,0,3.01-1.28,5.44-3.85,7.29-2.57,1.85-5.93,2.78-10.08,2.78h-4.25v4.06l20.18,19.92c.35,.4,.63,.75,.84,1.05,.21,.3,.42,.68,.63,1.13h23.91c-.21-.55-.35-.99-.42-1.32-.07-.33-.1-.69-.1-1.09v-19.16h7.46c7.98,0,14.21-1.3,18.7-3.91,4.48-2.6,6.72-6.21,6.72-10.82,0-4.36-2-7.75-5.99-10.18h0Zm-7.61,15.95h0c-1.16,1.66-2.75,2.92-4.78,3.77-2.1,.91-4.83,1.36-8.19,1.36h-6.3V28.16h7.25c4.27,0,7.63,.92,10.08,2.75,2.45,1.84,3.68,4.36,3.68,7.58,0,2.11-.58,4-1.73,5.66Z"/></g><g><path class="cls-7" d="M170.58,32.42c0-.16,.08-.24,.24-.24l4.74-.04c.33,0,.65,.06,.94,.19,.3,.13,.55,.3,.77,.51,.22,.21,.39,.47,.52,.76,.13,.29,.2,.61,.2,.94l.03,3.21c0,.33-.06,.64-.18,.94-.13,.3-.3,.55-.51,.77-.21,.22-.47,.39-.76,.52-.29,.13-.61,.2-.94,.2l-2.57,.02c-.28,0-.55-.04-.81-.12l.03,3.1c0,.16-.08,.24-.24,.24h-1.12c-.16,.01-.24-.07-.24-.23l-.09-10.76h0Zm1.65,5.37h0c0,.23,.08,.41,.24,.57,.16,.15,.35,.23,.57,.23l2.57-.02c.23,0,.42-.08,.57-.24,.15-.16,.23-.35,.23-.57l-.03-3.21c0-.22-.08-.41-.24-.57-.16-.15-.35-.23-.57-.23l-3.13,.03c-.16,0-.24,.08-.24,.24l.03,3.77Z"/><path class="cls-7" d="M184.8,32.3v1.13c.01,.16-.07,.24-.23,.24l-2.33,.02c-.23,0-.42,.08-.57,.24-.15,.16-.23,.36-.23,.58l.05,5.36c0,.16-.08,.24-.24,.24h-1.12c-.16,.01-.24-.07-.24-.23l-.04-5.36c0-.33,.06-.64,.18-.93,.12-.29,.29-.55,.5-.77,.21-.22,.46-.4,.75-.53,.29-.13,.6-.2,.93-.22l2.36-.02c.16,0,.24,.08,.24,.24Z"/><path class="cls-7" d="M193.23,31.99c.16,0,.24,.08,.24,.24l.04,5.38c0,.33-.06,.65-.18,.94-.13,.3-.3,.55-.51,.77-.21,.22-.47,.39-.76,.52-.29,.13-.61,.2-.94,.2l-2.57,.02c-.33,0-.65-.06-.94-.19-.3-.13-.55-.29-.77-.51-.22-.21-.39-.46-.52-.76-.13-.29-.2-.61-.2-.94l-.03-3.21c0-.33,.06-.65,.19-.94,.13-.3,.29-.55,.51-.77,.21-.21,.47-.39,.76-.52,.29-.13,.61-.2,.94-.2l4.74-.04h0Zm-4.73,1.65h0c-.23,0-.41,.08-.57,.24-.15,.16-.23,.35-.23,.57l.03,3.21c0,.23,.08,.41,.24,.57,.16,.16,.35,.23,.57,.23l2.57-.02c.22,0,.41-.08,.57-.24,.15-.16,.23-.35,.23-.57l-.03-3.78c0-.16-.08-.24-.24-.24l-3.13,.03Z"/><path class="cls-7" d="M205.42,32.13v1.13c.01,.16-.07,.24-.23,.24l-2.33,.02c-.22,0-.41,.08-.57,.24-.15,.16-.23,.36-.23,.58l.05,5.36c0,.16-.08,.24-.24,.24h-1.12c-.16,0-.24-.07-.24-.23l-.04-5.36c0-.33,.06-.64,.18-.93,.12-.29,.29-.54,.5-.77,.21-.22,.46-.4,.75-.53,.29-.13,.6-.2,.93-.21l2.36-.02c.16,0,.24,.08,.24,.24Z"/><path class="cls-7" d="M211.69,31.83c.33,0,.65,.06,.94,.19,.3,.13,.55,.3,.77,.51,.22,.21,.39,.47,.52,.76,.13,.3,.2,.61,.2,.94l.02,2.17c0,.16-.08,.24-.24,.25l-5.3,.04c-.16,0-.24,.08-.24,.24v.56c0,.23,.09,.41,.24,.57,.16,.15,.35,.23,.57,.23l4.42-.04c.16,0,.24,.08,.24,.24v1.12c.01,.16-.07,.24-.23,.25l-4.42,.04c-.33,0-.65-.06-.94-.19-.3-.13-.55-.3-.77-.51-.22-.21-.39-.46-.52-.76-.13-.29-.2-.61-.2-.94l-.03-3.21c0-.33,.06-.64,.19-.94,.13-.29,.3-.55,.51-.77,.21-.21,.47-.39,.76-.52,.29-.13,.61-.2,.94-.2l2.57-.02h0Zm-2.56,1.63h0c-.22,0-.41,.08-.57,.24-.15,.16-.23,.35-.23,.57v.8s4.18-.03,4.18-.03v-.8c0-.22-.09-.41-.25-.57-.16-.15-.35-.23-.57-.23l-2.57,.02Z"/><path d="M195.36,35.11h3.12c.13,0,.24,.11,.24,.24v1.12c0,.13-.11,.24-.24,.24h-3.11c-.13,0-.24-.11-.24-.24v-1.12c0-.13,.11-.24,.24-.24Z" transform="translate(-.29 1.65) rotate(-.48)"/><path class="cls-7" d="M224.99,38.15c.16,0,.24,.08,.24,.24v1.12c0,.16-.07,.24-.23,.24h-1.45c-.33,.01-.65-.05-.94-.17-.3-.12-.55-.29-.77-.51-.22-.21-.39-.46-.52-.76-.13-.29-.2-.61-.2-.94l-.03-3.79c0-.16-.08-.24-.24-.24h-1.12c-.16,.01-.24-.07-.24-.23v-1.11c0-.16,.07-.24,.23-.24h1.12c.16-.01,.24-.09,.24-.25l-.02-1.91c0-.16,.08-.24,.24-.24h1.12c.16-.01,.24,.07,.24,.23l.02,1.91c0,.16,.08,.24,.24,.24l1.93-.02c.16,0,.24,.08,.24,.24v1.13c.01,.16-.07,.24-.23,.24l-1.93,.02c-.16,0-.24,.08-.24,.24l.03,3.77c0,.23,.08,.41,.24,.57,.16,.16,.35,.23,.57,.23h1.44Z"/><path class="cls-7" d="M233.69,31.65c.16,0,.24,.08,.24,.24l.04,5.38c0,.33-.06,.64-.19,.94-.13,.29-.29,.55-.51,.77-.21,.22-.47,.39-.76,.52-.29,.13-.61,.2-.94,.2l-2.57,.02c-.33,0-.64-.06-.94-.18-.3-.13-.55-.3-.77-.51-.22-.21-.39-.47-.52-.76-.13-.29-.2-.61-.2-.94l-.03-3.21c0-.33,.06-.64,.18-.94,.13-.3,.29-.55,.51-.77,.21-.21,.47-.39,.76-.52,.29-.13,.61-.2,.94-.2l4.74-.04h0Zm-4.73,1.65h0c-.22,0-.41,.08-.57,.24-.15,.16-.23,.35-.23,.57l.03,3.21c0,.23,.08,.41,.24,.57,.16,.16,.35,.23,.57,.23l2.57-.02c.22,0,.41-.08,.57-.24,.15-.16,.23-.35,.23-.57l-.03-3.77c0-.16-.08-.24-.24-.24l-3.13,.03Z"/><path class="cls-7" d="M240.84,31.83v1.13c0,.16-.07,.24-.23,.24l-2.33,.02c-.22,0-.41,.08-.57,.24-.15,.16-.23,.36-.23,.58l.04,5.36c0,.16-.08,.24-.24,.24h-1.12c-.16,.01-.24-.07-.24-.23l-.04-5.36c0-.33,.06-.64,.18-.93,.12-.29,.29-.55,.5-.77,.21-.22,.46-.4,.75-.53,.29-.13,.6-.2,.93-.21l2.36-.02c.16,0,.24,.08,.24,.24Z"/><path class="cls-7" d="M216.43,39.83c-.16,0-.24-.08-.24-.24l-.06-7.55c0-.16,.08-.24,.24-.24h1.12c.16-.01,.24,.07,.24,.23l.06,7.55c0,.16-.08,.24-.24,.24h-1.12Z"/><path d="M243.14,31.57h1.12c.13,0,.24,.11,.24,.24v7.55c0,.13-.11,.24-.24,.24h-1.13c-.13,0-.24-.11-.24-.24v-7.55c0-.13,.11-.24,.24-.24Z" transform="translate(-.28 2) rotate(-.47)"/><path class="cls-7" d="M251.12,31.51c.33,0,.65,.06,.94,.18,.3,.13,.55,.3,.77,.51,.22,.21,.39,.47,.52,.76,.13,.29,.2,.61,.2,.94l.04,5.38c0,.16-.08,.24-.24,.24l-4.74,.04c-.33,0-.65-.06-.94-.19-.3-.12-.55-.29-.77-.51-.22-.21-.39-.46-.52-.76-.13-.29-.2-.61-.2-.94,0-.33,.06-.65,.18-.94,.13-.3,.3-.55,.51-.77,.21-.21,.47-.39,.76-.52,.29-.13,.61-.2,.94-.2l3.13-.03c.16,0,.24-.08,.24-.24v-.56c0-.23-.09-.41-.24-.57-.16-.15-.35-.23-.57-.23l-3.95,.03c-.16,0-.24-.08-.24-.24v-1.13c0-.16,.07-.24,.23-.24l3.95-.03h0Zm.62,6.42h0c.16,0,.24-.08,.24-.24v-1.12c-.01-.16-.09-.24-.25-.24l-3.13,.03c-.22,0-.41,.08-.57,.24-.15,.16-.23,.35-.23,.57,0,.22,.08,.41,.24,.57,.16,.15,.35,.23,.57,.23l3.13-.02Z"/><path class="cls-7" d="M193.31,29.16s-1.54,.01-2.54,.02h-.17s-.46,0-.46,0c-.33,0-.64,.07-.94,.2-.29,.13-.55,.3-.76,.52-.21,.21-.38,.47-.51,.77-.01,.03,.01,.12,.14,.12,0,0,1.54-.01,2.54-.02,.48,0,.17,0,.17,0h.46c.33,0,.64-.07,.94-.2,.29-.13,.55-.3,.76-.52,.21-.22,.38-.47,.51-.77,.01-.03-.01-.12-.14-.12Z"/><path class="cls-7" d="M267.24,28.16c.16,0,.24,.08,.24,.24l.07,8.6c0,.33-.06,.64-.19,.94-.13,.29-.3,.55-.51,.77-.21,.22-.46,.39-.76,.52-.29,.13-.61,.2-.94,.2l-2.57,.02c-.33,0-.65-.06-.94-.19-.3-.12-.55-.3-.77-.51-.22-.21-.39-.47-.52-.76-.13-.29-.2-.61-.2-.94l-.03-3.21c0-.33,.06-.64,.19-.94,.12-.3,.29-.55,.51-.77,.21-.21,.47-.39,.76-.52,.29-.13,.61-.2,.94-.2l3.13-.03c.16,0,.24-.08,.24-.24l-.02-2.73c0-.16,.08-.24,.24-.24h1.12Zm-4.7,4.85h0c-.23,0-.41,.08-.57,.25-.15,.16-.23,.35-.23,.56l.03,3.21c0,.23,.08,.41,.24,.57,.16,.15,.35,.23,.57,.23l2.57-.02c.22,0,.41-.08,.57-.24,.15-.16,.23-.35,.23-.57l-.03-3.78c0-.16-.08-.24-.24-.24l-3.13,.03Z"/><path class="cls-7" d="M274.41,31.31c.33,0,.65,.06,.94,.18,.3,.13,.55,.3,.77,.51,.22,.21,.39,.47,.52,.76,.13,.29,.2,.61,.2,.94l.02,2.17c0,.16-.08,.24-.24,.24l-5.3,.04c-.16,0-.24,.08-.24,.24v.56c0,.23,.09,.41,.24,.57,.16,.16,.35,.23,.57,.23l4.42-.04c.16,0,.24,.08,.24,.24v1.13c0,.16-.07,.24-.23,.24l-4.42,.04c-.33,0-.65-.06-.94-.19-.3-.12-.55-.29-.77-.51-.22-.21-.39-.46-.52-.76-.13-.29-.2-.61-.2-.94l-.03-3.21c0-.33,.06-.65,.19-.94,.13-.29,.3-.55,.51-.77,.21-.21,.47-.39,.76-.52,.29-.13,.61-.2,.94-.2l2.57-.02h0Zm-2.56,1.63h0c-.22,0-.41,.08-.57,.24-.15,.16-.23,.35-.23,.57v.8s4.18-.04,4.18-.04v-.8c0-.23-.09-.41-.25-.57-.16-.15-.35-.23-.57-.23l-2.57,.02Z"/><path class="cls-7" d="M283.57,31.48c0-.16,.08-.24,.24-.24l4.74-.04c.33,0,.65,.06,.94,.19,.3,.13,.55,.3,.77,.51,.22,.21,.39,.47,.52,.76,.13,.29,.2,.61,.2,.94l.03,3.21c0,.33-.06,.65-.18,.94-.13,.3-.3,.55-.51,.77-.21,.22-.47,.39-.76,.52-.29,.13-.61,.2-.94,.2l-2.57,.02c-.28,0-.55-.04-.81-.12l.03,3.1c0,.16-.08,.24-.24,.24h-1.12c-.16,.01-.24-.07-.24-.23l-.09-10.76h0Zm1.65,5.37h0c0,.23,.08,.41,.24,.57,.16,.15,.35,.23,.57,.23l2.57-.02c.23,0,.41-.08,.57-.24,.15-.16,.23-.35,.23-.57l-.03-3.21c0-.23-.08-.41-.24-.57-.16-.15-.35-.23-.57-.23l-3.13,.03c-.16,0-.24,.08-.24,.24l.03,3.77Z"/><path class="cls-7" d="M297.71,31.12c.33,0,.65,.06,.94,.18,.29,.13,.55,.3,.77,.51,.22,.21,.39,.47,.52,.76,.13,.29,.2,.61,.2,.94l.02,2.17c0,.16-.08,.24-.24,.24l-5.3,.04c-.16,0-.24,.08-.24,.24v.56c0,.22,.08,.41,.24,.57,.16,.16,.35,.23,.57,.23l4.42-.04c.16,0,.24,.08,.24,.24v1.12c.01,.16-.07,.24-.23,.24l-4.42,.04c-.33,0-.65-.06-.94-.19-.3-.12-.55-.3-.77-.51-.22-.21-.39-.47-.52-.76-.13-.3-.2-.61-.2-.94l-.03-3.21c0-.33,.06-.64,.18-.94,.13-.3,.3-.55,.51-.77,.21-.21,.47-.39,.76-.52,.29-.13,.61-.2,.94-.2l2.57-.02h0Zm-2.56,1.63h0c-.23,0-.42,.08-.57,.24-.15,.16-.23,.35-.23,.57v.8s4.18-.03,4.18-.03v-.8c0-.22-.09-.41-.24-.57-.16-.15-.35-.23-.57-.23l-2.57,.02Z"/><path class="cls-7" d="M307.4,37.22c.15-.16,.23-.35,.23-.56,0-.23-.08-.42-.24-.57-.16-.15-.35-.23-.57-.23l-2.57,.02c-.33,0-.65-.06-.94-.19-.3-.13-.55-.29-.77-.51-.22-.21-.39-.46-.52-.76-.13-.29-.2-.6-.2-.94,0-.33,.06-.64,.19-.94,.13-.29,.29-.55,.51-.77,.21-.21,.46-.39,.76-.52,.29-.13,.61-.2,.94-.2l4.26-.04c.16,0,.24,.08,.24,.24v1.13c.01,.16-.07,.24-.23,.24l-4.26,.04c-.23,0-.41,.08-.57,.24-.15,.16-.23,.35-.23,.57,0,.21,.08,.4,.24,.56,.16,.16,.35,.24,.57,.24l2.57-.02c.33,0,.65,.06,.94,.18,.29,.13,.55,.3,.77,.51,.22,.21,.39,.47,.52,.76,.13,.29,.2,.61,.2,.94,0,.33-.06,.64-.18,.94-.13,.29-.29,.55-.51,.77-.21,.22-.47,.39-.76,.52-.29,.13-.61,.2-.94,.2l-4.27,.04c-.16,0-.24-.08-.24-.24v-1.13c-.01-.16,.07-.24,.23-.24l4.27-.04c.23,0,.41-.08,.57-.25Z"/><path class="cls-7" d="M318.36,41.95c0,.16-.08,.24-.24,.24h-1.12c-.16,.01-.24-.07-.24-.23l-.03-3.1c-.28,.09-.54,.13-.8,.14l-2.57,.02c-.33,0-.64-.06-.94-.19-.3-.12-.55-.29-.77-.51-.22-.21-.39-.46-.52-.76-.13-.29-.2-.61-.2-.94l-.03-3.21c0-.33,.06-.64,.18-.94,.13-.29,.29-.55,.51-.77,.21-.21,.47-.39,.76-.52,.29-.13,.61-.2,.94-.2l4.74-.04c.16,0,.24,.08,.24,.24l.09,10.76h0Zm-1.68-9.14h0c0-.16-.08-.24-.24-.24l-3.13,.03c-.23,0-.41,.08-.57,.24-.15,.16-.23,.35-.23,.57l.03,3.21c0,.23,.08,.41,.24,.57,.16,.16,.35,.23,.57,.23l2.57-.02c.21,0,.4-.07,.54-.21,.15-.14,.23-.32,.25-.53l-.03-3.84Z"/><path class="cls-7" d="M327.66,31.11l.05,5.38c0,.33-.06,.65-.18,.94-.13,.3-.3,.55-.51,.77-.21,.22-.47,.39-.76,.52-.29,.13-.61,.2-.94,.2l-2.57,.02c-.33,0-.65-.06-.94-.19-.3-.13-.55-.3-.77-.51-.22-.21-.39-.46-.52-.76-.13-.29-.2-.61-.2-.94l-.04-5.38c0-.16,.08-.24,.24-.24h1.12c.16-.01,.24,.07,.24,.23l.04,5.38c0,.23,.08,.41,.24,.57,.16,.16,.35,.23,.57,.23l2.57-.02c.23,0,.41-.08,.57-.24,.15-.16,.23-.35,.23-.57l-.04-5.38c0-.16,.08-.24,.24-.24h1.12c.16-.01,.24,.07,.24,.23Z"/><path d="M330.19,30.84h1.12c.13,0,.24,.11,.24,.24v7.55c0,.13-.11,.24-.24,.24h-1.12c-.13,0-.24-.11-.24-.24v-7.55c0-.13,.11-.24,.24-.24Z" transform="translate(-.28 2.74) rotate(-.47)"/><path class="cls-7" d="M339.21,36.96c.15-.16,.23-.35,.23-.56,0-.23-.08-.42-.24-.57-.16-.15-.35-.23-.57-.23l-2.57,.02c-.33,0-.65-.06-.94-.19-.3-.12-.55-.29-.77-.51-.22-.21-.39-.46-.52-.76-.13-.29-.2-.61-.2-.94,0-.33,.06-.65,.18-.94,.13-.3,.3-.55,.51-.77,.21-.22,.47-.39,.76-.52,.29-.13,.61-.2,.94-.2l4.26-.04c.16,0,.24,.08,.24,.24v1.13c.01,.16-.07,.24-.23,.24l-4.26,.04c-.22,0-.41,.08-.57,.24-.15,.16-.23,.35-.23,.57,0,.21,.08,.4,.24,.56,.16,.16,.35,.24,.57,.24l2.57-.02c.33,0,.65,.06,.94,.19,.29,.13,.55,.3,.77,.51,.22,.21,.39,.47,.52,.76,.13,.29,.2,.61,.2,.94,0,.33-.06,.65-.19,.94-.12,.29-.3,.55-.51,.77-.21,.22-.46,.39-.76,.52-.29,.13-.61,.2-.94,.2l-4.27,.04c-.16,0-.24-.08-.24-.24v-1.12c-.01-.16,.07-.24,.23-.24l4.27-.04c.23,0,.42-.08,.57-.25Z"/><path class="cls-7" d="M347.5,30.71c.33,0,.65,.06,.94,.18,.3,.13,.55,.3,.77,.51,.21,.21,.39,.47,.52,.76,.13,.29,.2,.61,.2,.94l.04,5.38c0,.16-.08,.24-.24,.24l-4.74,.04c-.33,0-.65-.06-.94-.19-.3-.12-.55-.3-.77-.51-.22-.21-.39-.47-.52-.76-.13-.29-.2-.61-.2-.94,0-.33,.06-.65,.18-.94,.13-.29,.3-.55,.51-.77,.21-.21,.46-.39,.76-.52,.29-.13,.61-.2,.94-.2l3.13-.03c.16,0,.24-.08,.24-.24v-.56c0-.23-.09-.41-.24-.57-.16-.15-.35-.23-.57-.23l-3.95,.03c-.16,0-.24-.08-.24-.24v-1.13c-.01-.16,.07-.24,.23-.24l3.95-.03h0Zm.62,6.42h0c.16,0,.24-.08,.24-.24v-1.12c0-.16-.09-.24-.25-.24l-3.13,.03c-.22,0-.41,.08-.57,.24-.15,.16-.23,.35-.23,.57,0,.22,.08,.41,.24,.57,.16,.16,.35,.23,.57,.23l3.13-.03Z"/><path class="cls-7" d="M192.26,47.28l.13,15.69c0,.97-.17,1.88-.54,2.75-.37,.86-.86,1.61-1.48,2.24-.62,.63-1.36,1.13-2.21,1.52-.86,.38-1.77,.58-2.74,.58l-7.49,.06c-.97,0-1.88-.17-2.75-.54-.86-.37-1.61-.86-2.24-1.48-.63-.62-1.14-1.36-1.52-2.21-.38-.86-.58-1.77-.59-2.74l-.13-15.69c0-.47,.23-.7,.7-.71l3.28-.03c.47,0,.7,.23,.71,.7l.13,15.69c0,.66,.24,1.21,.69,1.66,.46,.45,1.01,.67,1.67,.66l7.5-.06c.66,0,1.21-.24,1.66-.69,.45-.46,.67-1.01,.67-1.67l-.13-15.69c0-.47,.23-.7,.7-.71l3.28-.03c.47,0,.7,.23,.71,.7Z"/><path class="cls-7" d="M215.37,46.94c.86,.37,1.61,.86,2.24,1.48,.63,.62,1.14,1.36,1.52,2.21,.38,.86,.58,1.77,.59,2.74l.13,15.69c0,.47-.23,.7-.7,.71l-3.28,.03c-.47,0-.71-.23-.71-.7l-.13-15.69c0-.66-.24-1.21-.69-1.66-.46-.45-1.01-.67-1.67-.67l-9.13,.08c-.47,0-.7,.24-.7,.71l.14,17.33c0,.47-.23,.71-.7,.71l-3.28,.03c-.47,0-.7-.23-.71-.7l-.18-22.01c0-.47,.23-.7,.7-.71l13.82-.12c.97,0,1.88,.17,2.74,.54Z"/><path class="cls-7" d="M226.87,69.71c-.47,0-.7-.23-.71-.7l-.18-22.01c0-.47,.23-.7,.7-.71l3.28-.03c.47,0,.7,.23,.71,.7l.18,22.01c0,.47-.23,.71-.7,.71l-3.28,.03Z"/><path class="cls-7" d="M241.69,69.02c-.86-.37-1.61-.86-2.24-1.48-.63-.62-1.13-1.36-1.52-2.21-.38-.86-.58-1.77-.58-2.74l-.08-9.37c0-.97,.17-1.88,.54-2.74,.37-.86,.86-1.61,1.48-2.24,.62-.63,1.36-1.13,2.21-1.52,.86-.38,1.77-.58,2.74-.58l12.88-.11c.47,0,.7,.23,.71,.7l.03,3.28c0,.47-.23,.7-.7,.71l-12.88,.11c-.66,0-1.21,.24-1.66,.69-.45,.46-.67,1.01-.66,1.67l.08,9.37c0,.66,.24,1.21,.69,1.66,.46,.45,1.01,.67,1.67,.67l12.88-.11c.47,0,.7,.23,.71,.7l.03,3.28c0,.47-.23,.71-.7,.71l-12.88,.11c-.97,0-1.88-.17-2.74-.54Z"/><path class="cls-7" d="M276.56,45.87c.97,0,1.88,.17,2.74,.54,.86,.37,1.61,.86,2.24,1.48,.63,.62,1.13,1.36,1.52,2.21,.38,.86,.58,1.77,.58,2.74l.13,15.69c0,.47-.23,.7-.7,.71l-13.82,.11c-.97,0-1.88-.17-2.74-.54-.86-.37-1.61-.86-2.24-1.48-.63-.62-1.13-1.36-1.52-2.21-.38-.86-.58-1.77-.58-2.74,0-.97,.17-1.88,.54-2.74,.37-.86,.86-1.61,1.48-2.24,.62-.63,1.36-1.14,2.21-1.52,.86-.38,1.77-.58,2.74-.58l9.13-.08c.47,0,.7-.24,.7-.71v-1.64c-.02-.66-.25-1.21-.71-1.66-.46-.45-1.01-.67-1.67-.66l-11.52,.1c-.47,0-.7-.23-.71-.7l-.03-3.28c0-.47,.23-.7,.7-.71l11.52-.1h0Zm1.79,18.72h0c.47,0,.7-.24,.7-.71l-.03-3.28c0-.47-.24-.7-.71-.7l-9.13,.08c-.66,0-1.21,.24-1.66,.69-.45,.46-.67,1.01-.66,1.67,0,.66,.24,1.21,.69,1.66,.46,.45,1.01,.67,1.67,.67l9.13-.08Z"/><path class="cls-7" d="M318.18,46.09c.86,.37,1.61,.86,2.24,1.48,.63,.62,1.14,1.35,1.52,2.19,.38,.84,.58,1.74,.59,2.71l.13,15.74c0,.47-.23,.71-.7,.71l-3.28,.03c-.47,0-.71-.23-.71-.7l-.13-15.74c0-.66-.24-1.2-.72-1.63-.47-.43-1.02-.65-1.65-.64l-6.56,.05c-.47,0-.7,.24-.7,.71l.14,17.33c0,.47-.23,.71-.7,.71l-3.28,.03c-.47,0-.7-.23-.71-.7l-.14-17.33c0-.47-.24-.7-.71-.7l-8.2,.07c-.47,0-.7,.24-.7,.71l.14,17.33c0,.47-.23,.71-.7,.71l-3.28,.03c-.47,0-.7-.23-.71-.7l-.18-22.01c0-.47,.23-.7,.7-.71l25.53-.21c.97,0,1.88,.17,2.74,.54Z"/><path class="cls-7" d="M328.32,46.15c0-.47,.23-.7,.7-.71l13.82-.11c.97,0,1.88,.17,2.75,.54,.86,.37,1.61,.86,2.24,1.48,.63,.62,1.14,1.36,1.52,2.21,.38,.86,.58,1.77,.58,2.74l.08,9.37c0,.97-.17,1.88-.54,2.75-.37,.86-.86,1.61-1.48,2.24-.62,.63-1.36,1.14-2.21,1.52-.85,.38-1.77,.58-2.73,.58l-7.49,.06c-.81,0-1.59-.11-2.34-.36l.08,9.04c0,.47-.23,.7-.7,.71l-3.28,.03c-.47,0-.7-.23-.71-.7l-.26-31.38h0Zm4.82,15.65h0c0,.65,.23,1.21,.69,1.66,.46,.45,1.01,.67,1.67,.67l7.5-.06c.66,0,1.21-.24,1.66-.69,.45-.46,.67-1.01,.66-1.67l-.08-9.37c0-.66-.23-1.21-.69-1.66-.46-.45-1.01-.67-1.67-.67l-9.13,.08c-.47,0-.7,.24-.7,.71l.09,11.01Z"/></g></svg>